<svg width="363" height="155" viewBox="0 0 363 155" fill="none" xmlns="http://www.w3.org/2000/svg">
<path d="M1.52 67.83V1.33H30.4C34.58 1.33 38.2217 2.05833 41.325 3.515C44.4283 4.97167 46.835 7.03 48.545 9.69C50.255 12.35 51.11 15.485 51.11 19.095V20.235C51.11 24.225 50.16 27.455 48.26 29.925C46.36 32.395 44.0167 34.2 41.23 35.34V37.05C43.7633 37.1767 45.7267 38.0633 47.12 39.71C48.5133 41.2933 49.21 43.415 49.21 46.075V67.83H36.67V47.88C36.67 46.36 36.2583 45.125 35.435 44.175C34.675 43.225 33.3767 42.75 31.54 42.75H14.06V67.83H1.52ZM14.06 31.35H29.07C32.0467 31.35 34.3583 30.5583 36.005 28.975C37.715 27.3283 38.57 25.175 38.57 22.515V21.565C38.57 18.905 37.7467 16.7833 36.1 15.2C34.4533 13.5533 32.11 12.73 29.07 12.73H14.06V31.35Z" fill="#F0F0F0"/>
<path d="M61.5444 67.83V1.33H74.0844V67.83H61.5444Z" fill="#F0F0F0"/>
<path d="M86.5932 67.83V1.33H110.438L123.643 59.28H125.353V1.33H137.703V67.83H113.858L100.653 9.88H98.9432V67.83H86.5932Z" fill="#F0F0F0"/>
<path d="M176.076 69.16C167.716 69.16 161.066 66.88 156.126 62.32C151.186 57.6967 148.716 51.11 148.716 42.56V26.6C148.716 18.05 151.186 11.495 156.126 6.935C161.066 2.31167 167.716 0 176.076 0C184.436 0 191.086 2.31167 196.026 6.935C200.966 11.495 203.436 18.05 203.436 26.6V42.56C203.436 51.11 200.966 57.6967 196.026 62.32C191.086 66.88 184.436 69.16 176.076 69.16ZM176.076 57.95C180.762 57.95 184.404 56.5883 187.001 53.865C189.597 51.1417 190.896 47.5 190.896 42.94V26.22C190.896 21.66 189.597 18.0183 187.001 15.295C184.404 12.5717 180.762 11.21 176.076 11.21C171.452 11.21 167.811 12.5717 165.151 15.295C162.554 18.0183 161.256 21.66 161.256 26.22V42.94C161.256 47.5 162.554 51.1417 165.151 53.865C167.811 56.5883 171.452 57.95 176.076 57.95Z" fill="#F0F0F0"/>
<path d="M24.51 154.16C19.95 154.16 15.8017 153.147 12.065 151.12C8.39167 149.03 5.44667 146.022 3.23 142.095C1.07667 138.105 0 133.26 0 127.56V111.6C0 103.05 2.40667 96.495 7.22 91.935C12.0333 87.3117 18.5567 85 26.79 85C34.96 85 41.2617 87.185 45.695 91.555C50.1917 95.8617 52.44 101.72 52.44 109.13V109.51H40.09V108.75C40.09 106.407 39.5833 104.285 38.57 102.385C37.62 100.485 36.1633 98.9967 34.2 97.92C32.2367 96.78 29.7667 96.21 26.79 96.21C22.3567 96.21 18.8733 97.5717 16.34 100.295C13.8067 103.018 12.54 106.723 12.54 111.41V127.75C12.54 132.373 13.8067 136.11 16.34 138.96C18.8733 141.747 22.42 143.14 26.98 143.14C31.54 143.14 34.865 141.937 36.955 139.53C39.045 137.123 40.09 134.083 40.09 130.41V129.46H24.32V118.82H52.44V152.83H40.85V146.465H39.14C38.6967 147.542 37.9683 148.682 36.955 149.885C36.005 151.088 34.5483 152.102 32.585 152.925C30.6217 153.748 27.93 154.16 24.51 154.16Z" fill="#F0F0F0"/>
<path d="M90.2604 154.16C81.9004 154.16 75.2504 151.88 70.3104 147.32C65.3704 142.697 62.9004 136.11 62.9004 127.56V111.6C62.9004 103.05 65.3704 96.495 70.3104 91.935C75.2504 87.3117 81.9004 85 90.2604 85C98.6204 85 105.27 87.3117 110.21 91.935C115.15 96.495 117.62 103.05 117.62 111.6V127.56C117.62 136.11 115.15 142.697 110.21 147.32C105.27 151.88 98.6204 154.16 90.2604 154.16ZM90.2604 142.95C94.9471 142.95 98.5887 141.588 101.185 138.865C103.782 136.142 105.08 132.5 105.08 127.94V111.22C105.08 106.66 103.782 103.018 101.185 100.295C98.5887 97.5717 94.9471 96.21 90.2604 96.21C85.6371 96.21 81.9954 97.5717 79.3354 100.295C76.7387 103.018 75.4404 106.66 75.4404 111.22V127.94C75.4404 132.5 76.7387 136.142 79.3354 138.865C81.9954 141.588 85.6371 142.95 90.2604 142.95Z" fill="#F0F0F0"/>
<path d="M124.586 152.83V141.81H133.326V97.35H124.586V86.33H151.946C160.876 86.33 167.652 88.61 172.276 93.17C176.962 97.6667 179.306 104.38 179.306 113.31V125.85C179.306 134.78 176.962 141.525 172.276 146.085C167.652 150.582 160.876 152.83 151.946 152.83H124.586ZM145.866 141.43H152.136C157.202 141.43 160.907 140.1 163.251 137.44C165.594 134.78 166.766 131.043 166.766 126.23V112.93C166.766 108.053 165.594 104.317 163.251 101.72C160.907 99.06 157.202 97.73 152.136 97.73H145.866V141.43Z" fill="#F0F0F0"/>
<path d="M212.842 154.16C207.712 154.16 203.184 153.242 199.257 151.405C195.331 149.568 192.259 146.94 190.042 143.52C187.826 140.1 186.717 135.983 186.717 131.17V128.51H199.067V131.17C199.067 135.16 200.302 138.168 202.772 140.195C205.242 142.158 208.599 143.14 212.842 143.14C217.149 143.14 220.347 142.285 222.437 140.575C224.591 138.865 225.667 136.68 225.667 134.02C225.667 132.183 225.129 130.695 224.052 129.555C223.039 128.415 221.519 127.497 219.492 126.8C217.529 126.04 215.122 125.343 212.272 124.71L210.087 124.235C205.527 123.222 201.601 121.955 198.307 120.435C195.077 118.852 192.576 116.793 190.802 114.26C189.092 111.727 188.237 108.433 188.237 104.38C188.237 100.327 189.187 96.875 191.087 94.025C193.051 91.1117 195.774 88.895 199.257 87.375C202.804 85.7917 206.952 85 211.702 85C216.452 85 220.664 85.8233 224.337 87.47C228.074 89.0533 230.987 91.46 233.077 94.69C235.231 97.8567 236.307 101.847 236.307 106.66V109.51H223.957V106.66C223.957 104.127 223.451 102.1 222.437 100.58C221.487 98.9967 220.094 97.8567 218.257 97.16C216.421 96.4 214.236 96.02 211.702 96.02C207.902 96.02 205.084 96.7483 203.247 98.205C201.474 99.5983 200.587 101.53 200.587 104C200.587 105.647 200.999 107.04 201.822 108.18C202.709 109.32 204.007 110.27 205.717 111.03C207.427 111.79 209.612 112.455 212.272 113.025L214.457 113.5C219.207 114.513 223.324 115.812 226.807 117.395C230.354 118.978 233.109 121.068 235.072 123.665C237.036 126.262 238.017 129.587 238.017 133.64C238.017 137.693 236.972 141.272 234.882 144.375C232.856 147.415 229.942 149.822 226.142 151.595C222.406 153.305 217.972 154.16 212.842 154.16Z" fill="#F0F0F0"/>
<path d="M273.21 154.16C264.85 154.16 258.2 151.88 253.26 147.32C248.32 142.697 245.85 136.11 245.85 127.56V111.6C245.85 103.05 248.32 96.495 253.26 91.935C258.2 87.3117 264.85 85 273.21 85C281.57 85 288.22 87.3117 293.16 91.935C298.1 96.495 300.57 103.05 300.57 111.6V127.56C300.57 136.11 298.1 142.697 293.16 147.32C288.22 151.88 281.57 154.16 273.21 154.16ZM273.21 142.95C277.896 142.95 281.538 141.588 284.135 138.865C286.731 136.142 288.03 132.5 288.03 127.94V111.22C288.03 106.66 286.731 103.018 284.135 100.295C281.538 97.5717 277.896 96.21 273.21 96.21C268.586 96.21 264.945 97.5717 262.285 100.295C259.688 103.018 258.39 106.66 258.39 111.22V127.94C258.39 132.5 259.688 136.142 262.285 138.865C264.945 141.588 268.586 142.95 273.21 142.95Z" fill="#F0F0F0"/>
<path d="M311.569 152.83V86.33H335.414L348.619 144.28H350.329V86.33H362.679V152.83H338.834L325.629 94.88H323.919V152.83H311.569Z" fill="#F0F0F0"/>
</svg>
